<svg xmlns="http://www.w3.org/2000/svg" width="980" height="1360" viewBox="0 0 980 1360"><style>text{font-family:Arial,Helvetica,sans-serif}</style><rect x="0" y="0" width="980" height="1360" fill="#f5f0e5" stroke="none" stroke-width="1"/><text x="38" y="43" font-size="17" fill="#607073" text-anchor="start" font-weight="700">LEDGER  /  ATLAS 01</text><text x="38" y="94" font-size="40" fill="#253a3d" text-anchor="start" font-weight="700">How the town talks</text><text x="38" y="125" font-size="16" fill="#607073" text-anchor="start" font-weight="400">DESIGN INTENT / NOT SIMULATED</text><path d="M38,147 L942,147" fill="none" stroke="#b9beb3" stroke-width="2"/><rect x="38" y="174" width="904" height="710" fill="#dedbcb" stroke="none" stroke-width="1"/><path d="M90.0,830.0 L290.0,830.0 L358.0,830.0 L358.0,814.0 L290.0,814.0 L290.0,782.0 L402.0,782.0 L402.0,862.0 L546.0,850.0 L682.0,806.0 L882.0,694.0 L882.0,206.0 L942,884 L38,884 L38,830.0 Z" fill="#b9d3d2" stroke="none" stroke-width="0" stroke-linejoin="round" stroke-linecap="round"/><path d="M90.0,830.0 L290.0,830.0 L358.0,830.0 L358.0,814.0 L290.0,814.0 L290.0,782.0 L402.0,782.0 L402.0,862.0 L546.0,850.0 L682.0,806.0 L882.0,694.0 L882.0,206.0 L90.0,206.0 Z" fill="#f5f0e5" stroke="#253a3d" stroke-width="2" stroke-linejoin="round" stroke-linecap="round"/><path d="M226.0,830.0 L290.0,830.0 L358.0,830.0 L358.0,814.0 L290.0,814.0 L290.0,782.0 L402.0,782.0 L402.0,862.0 L546.0,850.0 L546.0,654.0 L418.0,622.0 L314.0,566.0 L226.0,646.0 Z" fill="#b87b61" stroke="#f5f0e5" stroke-width="2" stroke-linejoin="round" stroke-linecap="round"/><path d="M314.0,566.0 L418.0,622.0 L546.0,654.0 L570.0,486.0 L530.0,382.0 L314.0,406.0 Z" fill="#c2964c" stroke="#f5f0e5" stroke-width="2" stroke-linejoin="round" stroke-linecap="round"/><path d="M530.0,382.0 L570.0,486.0 L698.0,454.0 L882.0,366.0 L882.0,206.0 L610.0,206.0 L610.0,286.0 Z" fill="#829aa0" stroke="#f5f0e5" stroke-width="2" stroke-linejoin="round" stroke-linecap="round"/><path d="M546.0,654.0 L658.0,686.0 L698.0,606.0 L698.0,454.0 L570.0,486.0 Z" fill="#9b7786" stroke="#f5f0e5" stroke-width="2" stroke-linejoin="round" stroke-linecap="round"/><path d="M90.0,406.0 L314.0,406.0 L530.0,382.0 L610.0,286.0 L610.0,206.0 L90.0,206.0 Z" fill="#8f9f78" stroke="#f5f0e5" stroke-width="2" stroke-linejoin="round" stroke-linecap="round"/><path d="M90.0,830.0 L226.0,830.0 L226.0,646.0 L314.0,566.0 L314.0,406.0 L90.0,406.0 Z" fill="#8b8d91" stroke="#f5f0e5" stroke-width="2" stroke-linejoin="round" stroke-linecap="round"/><path d="M546.0,850.0 L682.0,806.0 L882.0,694.0 L882.0,366.0 L698.0,454.0 L698.0,606.0 L658.0,686.0 L546.0,654.0 Z" fill="#7ca6a2" stroke="#f5f0e5" stroke-width="2" stroke-linejoin="round" stroke-linecap="round"/><path d="M98.0,446.0 L250.0,446.0 L330.0,418.0 L498.0,446.0 L650.0,438.0 L858.0,398.0" fill="none" stroke="#536e51" stroke-width="1.5" stroke-linejoin="round" stroke-linecap="round" stroke-dasharray="4 5"/><text x="102.0" y="442.0" font-size="13" fill="#35513e" text-anchor="start" font-weight="400">10m</text><path d="M106.0,366.0 L250.0,366.0 L410.0,370.0 L522.0,358.0 L626.0,302.0 L874.0,286.0" fill="none" stroke="#536e51" stroke-width="1.5" stroke-linejoin="round" stroke-linecap="round" stroke-dasharray="4 5"/><text x="110.0" y="362.0" font-size="13" fill="#35513e" text-anchor="start" font-weight="400">20m</text><path d="M114.0,290.0 L226.0,306.0 L370.0,298.0 L474.0,270.0 L506.0,218.0" fill="none" stroke="#536e51" stroke-width="1.5" stroke-linejoin="round" stroke-linecap="round" stroke-dasharray="4 5"/><text x="118.0" y="286.0" font-size="13" fill="#35513e" text-anchor="start" font-weight="400">35m</text><path d="M138.0,226.0 L234.0,250.0 L358.0,246.0 L398.0,210.0" fill="none" stroke="#536e51" stroke-width="1.5" stroke-linejoin="round" stroke-linecap="round" stroke-dasharray="4 5"/><text x="142.0" y="222.0" font-size="13" fill="#35513e" text-anchor="start" font-weight="400">45m</text><rect x="102.0" y="462.0" width="88.0" height="104.0" fill="#f5f0e5" stroke="#536165" stroke-width="0.7"/><rect x="102.0" y="590.0" width="40.0" height="56.0" fill="#f5f0e5" stroke="#536165" stroke-width="0.7"/><rect x="114.0" y="750.0" width="40.0" height="44.0" fill="#f5f0e5" stroke="#536165" stroke-width="0.7"/><rect x="190.0" y="559.6" width="28.0" height="30.400000000000002" fill="#f5f0e5" stroke="#536165" stroke-width="0.7"/><rect x="106.0" y="422.0" width="120.0" height="28.0" fill="#f5f0e5" stroke="#536165" stroke-width="0.7"/><rect x="298.0" y="450.0" width="12.0" height="68.0" fill="#f5f0e5" stroke="#536165" stroke-width="0.7"/><rect x="246.0" y="670.0" width="40.0" height="64.0" fill="#f5f0e5" stroke="#536165" stroke-width="0.7"/><rect x="266.0" y="574.0" width="40.0" height="32.0" fill="#f5f0e5" stroke="#536165" stroke-width="0.7"/><rect x="330.0" y="582.0" width="25.6" height="28.0" fill="#f5f0e5" stroke="#536165" stroke-width="0.7"/><rect x="410.0" y="694.0" width="80.0" height="44.0" fill="#f5f0e5" stroke="#536165" stroke-width="0.7"/><rect x="430.0" y="782.0" width="76.0" height="40.0" fill="#f5f0e5" stroke="#536165" stroke-width="0.7"/><rect x="462.0" y="659.6" width="72.0" height="22.400000000000002" fill="#f5f0e5" stroke="#536165" stroke-width="0.7"/><rect x="378.0" y="470.0" width="56.0" height="36.0" fill="#f5f0e5" stroke="#536165" stroke-width="0.7"/><rect x="490.0" y="455.6" width="36.0" height="30.400000000000002" fill="#f5f0e5" stroke="#536165" stroke-width="0.7"/><rect x="374.0" y="556.4000000000001" width="38.400000000000006" height="33.6" fill="#f5f0e5" stroke="#536165" stroke-width="0.7"/><rect x="458.0" y="570.0" width="68.8" height="44.0" fill="#f5f0e5" stroke="#536165" stroke-width="0.7"/><rect x="415.6" y="414.0" width="52.0" height="19.200000000000003" fill="#f5f0e5" stroke="#536165" stroke-width="0.7"/><rect x="320.40000000000003" y="478.0" width="16.0" height="48.0" fill="#f5f0e5" stroke="#536165" stroke-width="0.7"/><rect x="130.0" y="334.8" width="132.0" height="19.200000000000003" fill="#f5f0e5" stroke="#536165" stroke-width="0.7"/><rect x="130.0" y="311.6" width="132.0" height="14.4" fill="#f5f0e5" stroke="#536165" stroke-width="0.7"/><rect x="194.0" y="246.0" width="84.0" height="16.0" fill="#f5f0e5" stroke="#536165" stroke-width="0.7"/><rect x="354.0" y="276.4" width="64.0" height="17.6" fill="#f5f0e5" stroke="#536165" stroke-width="0.7"/><rect x="410.0" y="346.0" width="76.0" height="16.0" fill="#f5f0e5" stroke="#536165" stroke-width="0.7"/><rect x="330.0" y="298.8" width="36.0" height="19.200000000000003" fill="#f5f0e5" stroke="#536165" stroke-width="0.7"/><rect x="666.0" y="304.4" width="48.0" height="25.6" fill="#f5f0e5" stroke="#536165" stroke-width="0.7"/><rect x="734.0" y="262.0" width="24.0" height="20.0" fill="#f5f0e5" stroke="#536165" stroke-width="0.7"/><rect x="794.0" y="222.0" width="40.0" height="24.0" fill="#f5f0e5" stroke="#536165" stroke-width="0.7"/><rect x="590.0" y="302.0" width="17.6" height="32.0" fill="#f5f0e5" stroke="#536165" stroke-width="0.7"/><rect x="758.0" y="378.0" width="76.0" height="28.0" fill="#f5f0e5" stroke="#536165" stroke-width="0.7"/><rect x="654.0" y="539.6" width="32.0" height="38.400000000000006" fill="#f5f0e5" stroke="#536165" stroke-width="0.7"/><rect x="570.0" y="542.0" width="24.0" height="36.0" fill="#f5f0e5" stroke="#536165" stroke-width="0.7"/><rect x="556.4000000000001" y="603.6" width="16.0" height="22.400000000000002" fill="#f5f0e5" stroke="#536165" stroke-width="0.7"/><rect x="594.0" y="506.0" width="33.6" height="16.0" fill="#f5f0e5" stroke="#536165" stroke-width="0.7"/><rect x="750.0" y="623.6" width="48.0" height="38.400000000000006" fill="#f5f0e5" stroke="#536165" stroke-width="0.7"/><rect x="762.0" y="586.0" width="48.0" height="28.0" fill="#f5f0e5" stroke="#536165" stroke-width="0.7"/><rect x="774.0" y="494.0" width="30.400000000000002" height="52.0" fill="#f5f0e5" stroke="#536165" stroke-width="0.7"/><rect x="726.0" y="666.0" width="19.200000000000003" height="16.0" fill="#f5f0e5" stroke="#536165" stroke-width="0.7"/><rect x="818.0" y="394.0" width="38.400000000000006" height="72.0" fill="#f5f0e5" stroke="#536165" stroke-width="0.7"/><path d="M298.0,814.0 L298.0,766.0 L370.0,750.0 L370.0,726.0 L370.0,692.4000000000001 L370.0,662.0 L422.0,614.0 L438.0,526.0" fill="none" stroke="#796f5b" stroke-width="11" stroke-linejoin="round" stroke-linecap="round"/><path d="M298.0,814.0 L298.0,766.0 L370.0,750.0 L370.0,726.0 L370.0,692.4000000000001 L370.0,662.0 L422.0,614.0 L438.0,526.0" fill="none" stroke="#fff6df" stroke-width="8" stroke-linejoin="round" stroke-linecap="round"/><path d="M242.0,534.0 L342.0,542.0 L438.0,526.0 L526.0,510.0 L602.0,498.0 L658.0,498.0" fill="none" stroke="#796f5b" stroke-width="11" stroke-linejoin="round" stroke-linecap="round"/><path d="M242.0,534.0 L342.0,542.0 L438.0,526.0 L526.0,510.0 L602.0,498.0 L658.0,498.0" fill="none" stroke="#fff6df" stroke-width="8" stroke-linejoin="round" stroke-linecap="round"/><path d="M170.0,798.0 L186.0,706.0 L214.0,646.0 L242.0,534.0 L266.0,446.0" fill="none" stroke="#796f5b" stroke-width="11" stroke-linejoin="round" stroke-linecap="round"/><path d="M170.0,798.0 L186.0,706.0 L214.0,646.0 L242.0,534.0 L266.0,446.0" fill="none" stroke="#fff6df" stroke-width="8" stroke-linejoin="round" stroke-linecap="round"/><path d="M438.0,526.0 L474.0,442.0 L590.0,414.0 L698.0,358.0 L810.0,278.0" fill="none" stroke="#796f5b" stroke-width="11" stroke-linejoin="round" stroke-linecap="round"/><path d="M438.0,526.0 L474.0,442.0 L590.0,414.0 L698.0,358.0 L810.0,278.0" fill="none" stroke="#fff6df" stroke-width="8" stroke-linejoin="round" stroke-linecap="round"/><path d="M418.0,754.0 L514.0,766.0 L610.0,746.0 L690.0,726.0 L810.0,662.0 L830.0,566.0 L806.0,466.0" fill="none" stroke="#796f5b" stroke-width="11" stroke-linejoin="round" stroke-linecap="round"/><path d="M418.0,754.0 L514.0,766.0 L610.0,746.0 L690.0,726.0 L810.0,662.0 L830.0,566.0 L806.0,466.0" fill="none" stroke="#fff6df" stroke-width="8" stroke-linejoin="round" stroke-linecap="round"/><path d="M514.0,766.0 L550.0,674.0 L602.0,606.0 L626.0,550.0 L658.0,498.0 L698.0,358.0" fill="none" stroke="#796f5b" stroke-width="11" stroke-linejoin="round" stroke-linecap="round"/><path d="M514.0,766.0 L550.0,674.0 L602.0,606.0 L626.0,550.0 L658.0,498.0 L698.0,358.0" fill="none" stroke="#fff6df" stroke-width="8" stroke-linejoin="round" stroke-linecap="round"/><path d="M266.0,446.0 L306.0,350.0 L418.0,326.0 L530.0,346.0 L590.0,414.0" fill="none" stroke="#796f5b" stroke-width="11" stroke-linejoin="round" stroke-linecap="round"/><path d="M266.0,446.0 L306.0,350.0 L418.0,326.0 L530.0,346.0 L590.0,414.0" fill="none" stroke="#fff6df" stroke-width="8" stroke-linejoin="round" stroke-linecap="round"/><path d="M178.0,286.0 L306.0,274.0 L406.0,254.0 L506.0,258.0 L546.0,286.0 L530.0,346.0" fill="none" stroke="#fff6df" stroke-width="4" stroke-linejoin="round" stroke-linecap="round"/><path d="M154.0,630.0 L214.0,646.0 L314.0,618.0 L370.0,662.0" fill="none" stroke="#fff6df" stroke-width="4" stroke-linejoin="round" stroke-linecap="round"/><path d="M342.0,542.0 L358.0,458.0 L474.0,442.0" fill="none" stroke="#fff6df" stroke-width="4" stroke-linejoin="round" stroke-linecap="round"/><path d="M358.0,458.0 L402.0,410.0 L498.0,402.0 L530.0,346.0" fill="none" stroke="#fff6df" stroke-width="4" stroke-linejoin="round" stroke-linecap="round"/><path d="M590.0,414.0 L642.0,274.0 L742.0,246.0 L810.0,278.0 L838.0,354.0 L698.0,358.0" fill="none" stroke="#fff6df" stroke-width="4" stroke-linejoin="round" stroke-linecap="round"/><path d="M690.0,726.0 L730.0,638.0 L750.0,554.0 L658.0,498.0" fill="none" stroke="#fff6df" stroke-width="4" stroke-linejoin="round" stroke-linecap="round"/><path d="M306.0,350.0 L306.0,274.0" fill="none" stroke="#f5edcf" stroke-width="3" stroke-linejoin="round" stroke-linecap="round" stroke-dasharray="4 4"/><path d="M570.0,810.0 L678.0,762.0 L834.0,674.0 L858.0,590.0" fill="none" stroke="#f5edcf" stroke-width="3" stroke-linejoin="round" stroke-linecap="round" stroke-dasharray="4 4"/><path d="M278.0,766.0 L278.0,806.0 L350.0,806.0 L350.0,822.0 L414.0,822.0 L414.0,754.0" fill="none" stroke="#f5edcf" stroke-width="3" stroke-linejoin="round" stroke-linecap="round" stroke-dasharray="4 4"/><path d="M370.0,724.8000000000001 L386.26,724.8000000000001 L386.26,719.4399999999999 L385.3,719.4399999999999" fill="none" stroke="#f5edcf" stroke-width="3" stroke-linejoin="round" stroke-linecap="round" stroke-dasharray="4 4"/><path d="M814.0,646.0 L858.0,646.0 L898.0,646.0" fill="none" stroke="#f5edcf" stroke-width="3" stroke-linejoin="round" stroke-linecap="round" stroke-dasharray="4 4"/><path d="M370.0,750.0 L418.0,754.0 L458.0,750.0" fill="none" stroke="#fff6df" stroke-width="4" stroke-linejoin="round" stroke-linecap="round"/><path d="M90.0,456.0 L258.0,456.0 L266.0,446.0" fill="none" stroke="#796f5b" stroke-width="11" stroke-linejoin="round" stroke-linecap="round"/><path d="M90.0,456.0 L258.0,456.0 L266.0,446.0" fill="none" stroke="#fff6df" stroke-width="8" stroke-linejoin="round" stroke-linecap="round"/><path d="M530.0,346.0 L570.0,254.0 L570.0,206.0" fill="none" stroke="#796f5b" stroke-width="11" stroke-linejoin="round" stroke-linecap="round"/><path d="M530.0,346.0 L570.0,254.0 L570.0,206.0" fill="none" stroke="#fff6df" stroke-width="8" stroke-linejoin="round" stroke-linecap="round"/><path d="M170.0,798.0 L222.0,798.0 L246.0,758.0" fill="none" stroke="#fff6df" stroke-width="4" stroke-linejoin="round" stroke-linecap="round"/><path d="M306.0,350.0 L330.0,370.0 L378.0,370.0" fill="none" stroke="#f5edcf" stroke-width="3" stroke-linejoin="round" stroke-linecap="round" stroke-dasharray="4 4"/><path d="M98.0,758.0 L134.0,686.0 L242.0,602.0 L290.0,486.0 L290.0,390.0" fill="none" stroke="#4b5350" stroke-width="3" stroke-linejoin="round" stroke-linecap="round" stroke-dasharray="8 5"/><circle cx="410.0" cy="722.0" r="18" fill="#253a3d" stroke="none" stroke-width="1"/><text x="410.0" y="728.0" font-size="18" fill="white" text-anchor="middle" font-weight="700">1</text><circle cx="438.0" cy="526.0" r="18" fill="#253a3d" stroke="none" stroke-width="1"/><text x="438.0" y="532.0" font-size="18" fill="white" text-anchor="middle" font-weight="700">2</text><circle cx="722.0" cy="322.0" r="18" fill="#253a3d" stroke="none" stroke-width="1"/><text x="722.0" y="328.0" font-size="18" fill="white" text-anchor="middle" font-weight="700">3</text><circle cx="626.0" cy="562.0" r="18" fill="#253a3d" stroke="none" stroke-width="1"/><text x="626.0" y="568.0" font-size="18" fill="white" text-anchor="middle" font-weight="700">4</text><circle cx="330.0" cy="290.0" r="18" fill="#253a3d" stroke="none" stroke-width="1"/><text x="330.0" y="296.0" font-size="18" fill="white" text-anchor="middle" font-weight="700">5</text><circle cx="194.0" cy="530.0" r="18" fill="#253a3d" stroke="none" stroke-width="1"/><text x="194.0" y="536.0" font-size="18" fill="white" text-anchor="middle" font-weight="700">6</text><circle cx="790.0" cy="602.0" r="18" fill="#253a3d" stroke="none" stroke-width="1"/><text x="790.0" y="608.0" font-size="18" fill="white" text-anchor="middle" font-weight="700">7</text><path d="M246.0,758.0 L222.0,798.0 L170.0,798.0 L186.0,706.0 L214.0,646.0 L314.0,618.0 L370.0,662.0 L370.0,692.4000000000001 L370.0,721.2 L374.1,721.2" fill="none" stroke="#e68b29" stroke-width="5" stroke-linejoin="round" stroke-linecap="round"/><path d="M378.0,370.0 L330.0,370.0 L306.0,350.0 L314.0,338.0 L306.0,350.0 L418.0,326.0 L530.0,346.0 L498.0,402.0 L402.0,410.0 L358.0,458.0 L410.0,486.0" fill="none" stroke="#e68b29" stroke-width="5" stroke-linejoin="round" stroke-linecap="round"/><path d="M690.0,318.0 L698.0,358.0 L658.0,498.0 L626.0,550.0 L668.4000000000001,554.0" fill="none" stroke="#e68b29" stroke-width="5" stroke-linejoin="round" stroke-linecap="round"/><path d="M778.0,646.0 L750.0,554.0 L658.0,498.0 L602.0,498.0 L526.0,510.0 L438.0,526.0 L410.0,486.0" fill="none" stroke="#e68b29" stroke-width="5" stroke-linejoin="round" stroke-linecap="round"/><path d="M370.0,721.2 L370.0,750.0 L298.0,766.0 L278.0,766.0 L278.0,806.0 L350.0,806.0 L350.0,822.0 L414.0,822.0 L414.0,754.0 L422.0,754.0" fill="none" stroke="#00565d" stroke-width="4" stroke-linejoin="round" stroke-linecap="round" stroke-dasharray="6 4"/><path d="M380.74,721.08 L385.3,719.4399999999999 L386.26,719.4399999999999 L386.26,724.8000000000001 L370.0,724.8000000000001" fill="none" stroke="#00565d" stroke-width="4" stroke-linejoin="round" stroke-linecap="round" stroke-dasharray="6 4"/><path d="M314.0,338.0 L306.0,350.0 L306.0,274.0 L406.0,254.0" fill="none" stroke="#00565d" stroke-width="4" stroke-linejoin="round" stroke-linecap="round" stroke-dasharray="6 4"/><path d="M370.0,721.2 L370.0,692.4000000000001" fill="none" stroke="#923f51" stroke-width="3" stroke-linejoin="round" stroke-linecap="round" stroke-dasharray="3 3"/><path d="M438.0,526.0 L474.0,442.0" fill="none" stroke="#923f51" stroke-width="3" stroke-linejoin="round" stroke-linecap="round" stroke-dasharray="3 3"/><path d="M806.0,642.0 L830.0,566.0" fill="none" stroke="#923f51" stroke-width="3" stroke-linejoin="round" stroke-linecap="round" stroke-dasharray="3 3"/><path d="M698.0,358.0 L770.0,302.0" fill="none" stroke="#923f51" stroke-width="3" stroke-linejoin="round" stroke-linecap="round" stroke-dasharray="3 3"/><rect x="367.20000000000005" y="696.0" width="12" height="12" fill="#a73540" stroke="#fff" stroke-width="1"/><rect x="437.6" y="524.0" width="12" height="12" fill="#a73540" stroke="#fff" stroke-width="1"/><rect x="656.0" y="496.0" width="12" height="12" fill="#a73540" stroke="#fff" stroke-width="1"/><rect x="792.0" y="642.4000000000001" width="12" height="12" fill="#a73540" stroke="#fff" stroke-width="1"/><circle cx="377.3" cy="721.2" r="4" fill="#253a3d" stroke="none" stroke-width="1"/><circle cx="377.3" cy="721.2" r="9" fill="none" stroke="#253a3d" stroke-width="1"/><circle cx="346.0" cy="810.0" r="4" fill="#253a3d" stroke="none" stroke-width="1"/><circle cx="458.0" cy="750.0" r="4" fill="#253a3d" stroke="none" stroke-width="1"/><circle cx="410.0" cy="486.0" r="4" fill="#253a3d" stroke="none" stroke-width="1"/><circle cx="410.0" cy="486.0" r="9" fill="none" stroke="#253a3d" stroke-width="1"/><circle cx="690.0" cy="318.0" r="4" fill="#253a3d" stroke="none" stroke-width="1"/><circle cx="690.0" cy="318.0" r="9" fill="none" stroke="#253a3d" stroke-width="1"/><circle cx="746.0" cy="274.0" r="4" fill="#253a3d" stroke="none" stroke-width="1"/><circle cx="668.4000000000001" cy="554.0" r="4" fill="#253a3d" stroke="none" stroke-width="1"/><circle cx="668.4000000000001" cy="554.0" r="9" fill="none" stroke="#253a3d" stroke-width="1"/><circle cx="314.0" cy="338.0" r="4" fill="#253a3d" stroke="none" stroke-width="1"/><circle cx="314.0" cy="338.0" r="9" fill="none" stroke="#253a3d" stroke-width="1"/><circle cx="250.0" cy="546.0" r="4" fill="#253a3d" stroke="none" stroke-width="1"/><circle cx="250.0" cy="546.0" r="9" fill="none" stroke="#253a3d" stroke-width="1"/><circle cx="150.0" cy="702.0" r="4" fill="#253a3d" stroke="none" stroke-width="1"/><circle cx="778.0" cy="646.0" r="4" fill="#253a3d" stroke="none" stroke-width="1"/><circle cx="778.0" cy="646.0" r="9" fill="none" stroke="#253a3d" stroke-width="1"/><circle cx="898.0" cy="646.0" r="4" fill="#253a3d" stroke="none" stroke-width="1"/><circle cx="370.0" cy="709.2" r="18" fill="none" stroke="#fff" stroke-width="3"/><path d="M388.0,709.2 L690,795" fill="none" stroke="white" stroke-width="2"/><rect x="686" y="776" width="230" height="64" fill="#253a3d" stroke="none" stroke-width="1"/><text x="703" y="802" font-size="18" fill="#fff" text-anchor="start" font-weight="700">MICKEY&#x27;S STREET</text><text x="703" y="826" font-size="17" fill="#dae3d8" text-anchor="start" font-weight="400">See Hook detail</text><text x="306" y="840" font-size="15" fill="#253a3d" text-anchor="start" font-weight="400">BASIN</text><text x="765" y="860" font-size="18" fill="#253a3d" text-anchor="start" font-weight="400">OPEN SEA</text><text x="50" y="166" font-size="12" fill="#607073" text-anchor="start" font-weight="400">INLAND STUDY EXTENT</text><path d="M902,243 L902,194" fill="none" stroke="#253a3d" stroke-width="3"/><path d="M894,205 L902,192 L910,205 Z" fill="#253a3d" stroke="#253a3d" stroke-width="1" stroke-linejoin="round" stroke-linecap="round"/><text x="902" y="183" font-size="17" fill="#253a3d" text-anchor="middle" font-weight="700">N</text><path d="M70,865 L230,865" fill="none" stroke="#253a3d" stroke-width="4"/><text x="70" y="855" font-size="14" fill="#253a3d" text-anchor="start" font-weight="400">0</text><text x="230" y="855" font-size="14" fill="#253a3d" text-anchor="end" font-weight="400">200 m</text><circle cx="62" cy="930" r="17" fill="#b87b61" stroke="none" stroke-width="1"/><text x="62" y="936" font-size="17" fill="#253a3d" text-anchor="middle" font-weight="700">1</text><text x="90" y="928" font-size="32" fill="#253a3d" text-anchor="start" font-weight="700">The Hook</text><text x="90" y="952" font-size="18" fill="#607073" text-anchor="start" font-weight="400">Old port / Mickey&#x27;s</text><circle cx="527" cy="930" r="17" fill="#c2964c" stroke="none" stroke-width="1"/><text x="527" y="936" font-size="17" fill="#253a3d" text-anchor="middle" font-weight="700">2</text><text x="555" y="928" font-size="32" fill="#253a3d" text-anchor="start" font-weight="700">Copper Row</text><text x="555" y="952" font-size="18" fill="#607073" text-anchor="start" font-weight="400">Market quarter</text><circle cx="62" cy="992" r="17" fill="#829aa0" stroke="none" stroke-width="1"/><text x="62" y="998" font-size="17" fill="#253a3d" text-anchor="middle" font-weight="700">3</text><text x="90" y="990" font-size="32" fill="#253a3d" text-anchor="start" font-weight="700">The Exchange</text><text x="90" y="1014" font-size="18" fill="#607073" text-anchor="start" font-weight="400">Offices / lawyers</text><circle cx="527" cy="992" r="17" fill="#9b7786" stroke="none" stroke-width="1"/><text x="527" y="998" font-size="17" fill="#253a3d" text-anchor="middle" font-weight="700">4</text><text x="555" y="990" font-size="32" fill="#253a3d" text-anchor="start" font-weight="700">The Parade</text><text x="555" y="1014" font-size="18" fill="#607073" text-anchor="start" font-weight="400">Nightlife</text><circle cx="62" cy="1054" r="17" fill="#8f9f78" stroke="none" stroke-width="1"/><text x="62" y="1060" font-size="17" fill="#253a3d" text-anchor="middle" font-weight="700">5</text><text x="90" y="1052" font-size="32" fill="#253a3d" text-anchor="start" font-weight="700">Fairview</text><text x="90" y="1076" font-size="18" fill="#607073" text-anchor="start" font-weight="400">Residential hills</text><circle cx="527" cy="1054" r="17" fill="#8b8d91" stroke="none" stroke-width="1"/><text x="527" y="1060" font-size="17" fill="#253a3d" text-anchor="middle" font-weight="700">6</text><text x="555" y="1052" font-size="32" fill="#253a3d" text-anchor="start" font-weight="700">Ironside</text><text x="555" y="1076" font-size="18" fill="#607073" text-anchor="start" font-weight="400">Industrial edge</text><circle cx="62" cy="1116" r="17" fill="#7ca6a2" stroke="none" stroke-width="1"/><text x="62" y="1122" font-size="17" fill="#253a3d" text-anchor="middle" font-weight="700">7</text><text x="90" y="1114" font-size="32" fill="#253a3d" text-anchor="start" font-weight="700">Gullwing</text><text x="90" y="1138" font-size="18" fill="#607073" text-anchor="start" font-weight="400">Faded resort waterfront</text><path d="M50,1190 L105,1190" fill="none" stroke="#e68b29" stroke-width="5"/><text x="115" y="1196" font-size="18" fill="#253a3d" text-anchor="start" font-weight="400">Daily routes</text><path d="M335,1190 L390,1190" fill="none" stroke="#00565d" stroke-width="4" stroke-dasharray="6 4"/><text x="400" y="1196" font-size="18" fill="#253a3d" text-anchor="start" font-weight="400">Escape intention</text><path d="M665,1190 L720,1190" fill="none" stroke="#923f51" stroke-width="3" stroke-dasharray="3 3"/><text x="730" y="1196" font-size="18" fill="#253a3d" text-anchor="start" font-weight="400">Possible view</text><text x="45" y="1238" font-size="17" fill="#607073" text-anchor="start" font-weight="400">Ring = information venue   /   red square = phone</text><text x="45" y="1266" font-size="17" fill="#607073" text-anchor="start" font-weight="400">Routes, sightlines and timing are not simulation results.</text><path d="M38,1308 L942,1308" fill="none" stroke="#b9beb3" stroke-width="2"/><text x="38" y="1338" font-size="15" fill="#607073" text-anchor="start" font-weight="400">MERIDIAN  /  1988-1992</text><text x="942" y="1338" font-size="15" fill="#607073" text-anchor="end" font-weight="400">AUTHORED DESIGN</text></svg>