<svg xmlns="http://www.w3.org/2000/svg" width="980" height="1320" viewBox="0 0 980 1320"><style>text{font-family:Arial,Helvetica,sans-serif}</style><rect x="0" y="0" width="980" height="1320" fill="#f5f0e5" stroke="none" stroke-width="1"/><text x="38" y="43" font-size="17" fill="#607073" text-anchor="start" font-weight="700">LEDGER  /  ATLAS 01</text><text x="38" y="94" font-size="40" fill="#253a3d" text-anchor="start" font-weight="700">The Hook / first street</text><text x="38" y="125" font-size="16" fill="#607073" text-anchor="start" font-weight="400">SOURCE GEOMETRY + PROPOSED CONNECTIONS</text><path d="M38,147 L942,147" fill="none" stroke="#b9beb3" stroke-width="2"/><rect x="405" y="300" width="90" height="630" fill="#838b88" stroke="none" stroke-width="1"/><rect x="496.875" y="300" width="30.0" height="630" fill="#d5cdb9" stroke="none" stroke-width="1"/><rect x="373.125" y="300" width="30.0" height="630" fill="#d5cdb9" stroke="none" stroke-width="1"/><rect x="253.125" y="795" width="120" height="90" fill="#b5aea0" stroke="#253a3d" stroke-width="1.5"/><text x="313.125" y="844" font-size="17" fill="#253a3d" text-anchor="middle" font-weight="700">0</text><rect x="253.125" y="705" width="120" height="90" fill="#b5aea0" stroke="#253a3d" stroke-width="1.5"/><text x="313.125" y="754" font-size="17" fill="#253a3d" text-anchor="middle" font-weight="700">1</text><rect x="253.125" y="615" width="120" height="90" fill="#b5aea0" stroke="#253a3d" stroke-width="1.5"/><text x="313.125" y="664" font-size="17" fill="#253a3d" text-anchor="middle" font-weight="700">2</text><rect x="253.125" y="480" width="120" height="90" fill="#b5aea0" stroke="#253a3d" stroke-width="1.5"/><text x="313.125" y="529" font-size="17" fill="#253a3d" text-anchor="middle" font-weight="700">0</text><rect x="253.125" y="390" width="120" height="90" fill="#b5aea0" stroke="#253a3d" stroke-width="1.5"/><text x="313.125" y="439" font-size="17" fill="#253a3d" text-anchor="middle" font-weight="700">1</text><rect x="253.125" y="300" width="120" height="90" fill="#b5aea0" stroke="#253a3d" stroke-width="1.5"/><text x="313.125" y="349" font-size="17" fill="#253a3d" text-anchor="middle" font-weight="700">2</text><rect x="526.875" y="795" width="120" height="90" fill="#995746" stroke="#253a3d" stroke-width="1.5"/><text x="586.875" y="844" font-size="17" fill="white" text-anchor="middle" font-weight="700">MICKEY&#x27;S</text><rect x="526.875" y="705" width="120" height="90" fill="#b5aea0" stroke="#253a3d" stroke-width="1.5"/><text x="586.875" y="754" font-size="17" fill="#253a3d" text-anchor="middle" font-weight="700">Fish shop</text><rect x="526.875" y="615" width="120" height="90" fill="#b5aea0" stroke="#253a3d" stroke-width="1.5"/><text x="586.875" y="664" font-size="17" fill="#253a3d" text-anchor="middle" font-weight="700">2</text><rect x="526.875" y="525" width="120" height="90" fill="#b5aea0" stroke="#253a3d" stroke-width="1.5"/><text x="586.875" y="574" font-size="17" fill="#253a3d" text-anchor="middle" font-weight="700">3</text><rect x="526.875" y="435" width="120" height="90" fill="#b5aea0" stroke="#253a3d" stroke-width="1.5"/><text x="586.875" y="484" font-size="17" fill="#253a3d" text-anchor="middle" font-weight="700">4</text><rect x="526.875" y="345" width="120" height="90" fill="#b5aea0" stroke="#253a3d" stroke-width="1.5"/><text x="586.875" y="394" font-size="17" fill="#253a3d" text-anchor="middle" font-weight="700">5</text><rect x="646.875" y="795" width="90" height="90" fill="#dbc9a4" stroke="#253a3d" stroke-width="1.5"/><rect x="646.875" y="852.0" width="39.0" height="33.0" fill="#af8366" stroke="#253a3d" stroke-width="1"/><rect x="736.875" y="750" width="36.0" height="225" fill="#e8dfc9" stroke="#253a3d" stroke-width="1"/><rect x="526.875" y="885" width="210" height="45" fill="#e8dfc9" stroke="#253a3d" stroke-width="1"/><text x="450" y="970" font-size="22" fill="#253a3d" text-anchor="middle" font-weight="700">SOUTH: Old Basin / Harbour Board</text><text x="450" y="218" font-size="22" fill="#253a3d" text-anchor="middle" font-weight="700">NORTH: Copper Row / market</text><path d="M450,285 L450,235" fill="none" stroke="#253a3d" stroke-width="3" stroke-linejoin="round" stroke-linecap="round"/><text x="470" y="260" font-size="18" fill="#253a3d" text-anchor="start" font-weight="700">N</text><text x="54" y="1010" font-size="32" fill="#253a3d" text-anchor="start" font-weight="700">Quay Street</text><text x="54" y="1040" font-size="18" fill="#607073" text-anchor="start" font-weight="400">42 m source segment, extended into the town by proposal</text><text x="54" y="1090" font-size="20" fill="#253a3d" text-anchor="start" font-weight="700">6 m carriageway</text><text x="54" y="1118" font-size="17" fill="#607073" text-anchor="start" font-weight="400">2 m footway each side</text><text x="354" y="1090" font-size="20" fill="#253a3d" text-anchor="start" font-weight="700">3 m west yard gap</text><text x="354" y="1118" font-size="17" fill="#607073" text-anchor="start" font-weight="400">Source x = 21 to 24</text><text x="654" y="1090" font-size="20" fill="#253a3d" text-anchor="start" font-weight="700">Mickey’s: east bay 0</text><text x="654" y="1118" font-size="17" fill="#607073" text-anchor="start" font-weight="400">6 m frontage × 8 m depth</text><text x="50" y="565" font-size="20" fill="#253a3d" text-anchor="start" font-weight="700">West yard</text><text x="50" y="590" font-size="17" fill="#607073" text-anchor="start" font-weight="400">3 m entrance</text><path d="M190,578 L250,592" fill="none" stroke="#253a3d" stroke-width="2"/><text x="680" y="695" font-size="20" fill="#253a3d" text-anchor="start" font-weight="700">East terrace</text><text x="680" y="720" font-size="17" fill="#607073" text-anchor="start" font-weight="400">6 × 6 m bays</text><path d="M674,708 L650,710" fill="none" stroke="#253a3d" stroke-width="2"/><text x="794" y="807" font-size="20" fill="#253a3d" text-anchor="start" font-weight="700">Rear lane</text><text x="794" y="834" font-size="17" fill="#607073" text-anchor="start" font-weight="400">2.4 m</text><path d="M805,844 L766,875" fill="none" stroke="#253a3d" stroke-width="2"/><text x="54" y="1180" font-size="17" fill="#607073" text-anchor="start" font-weight="400">Source IDs and coordinates are preserved in data/atlas.json.</text><text x="54" y="1208" font-size="17" fill="#607073" text-anchor="start" font-weight="400">Yard, lane and wider connections are authored proposals.</text><path d="M38,1268 L942,1268" fill="none" stroke="#b9beb3" stroke-width="2"/><text x="38" y="1298" font-size="15" fill="#607073" text-anchor="start" font-weight="400">MERIDIAN  /  1988-1992</text><text x="942" y="1298" font-size="15" fill="#607073" text-anchor="end" font-weight="400">AUTHORED DESIGN</text></svg>