<svg xmlns="http://www.w3.org/2000/svg" width="1060" height="1190" viewBox="0 0 1060 1190"><style>text{font-family:Arial,Helvetica,sans-serif}</style><rect x="0" y="0" width="1060" height="1190" fill="#f5f0e5" stroke="none" stroke-width="1"/><text x="38" y="43" font-size="17" fill="#607073" text-anchor="start" font-weight="700">LEDGER  /  ATLAS 01</text><text x="38" y="94" font-size="40" fill="#253a3d" text-anchor="start" font-weight="700">Mickey&#x27;s / ground floor</text><text x="38" y="125" font-size="16" fill="#607073" text-anchor="start" font-weight="400">DIMENSIONED AUTHORING PLAN / METRES</text><path d="M38,147 L1022,147" fill="none" stroke="#b9beb3" stroke-width="2"/><text x="80" y="196" font-size="20" fill="#253a3d" text-anchor="start" font-weight="700">WEST / QUAY STREET</text><text x="690" y="196" font-size="20" fill="#253a3d" text-anchor="start" font-weight="700">NORTH →</text><rect x="80" y="280" width="540" height="720" fill="#253a3d" stroke="#253a3d" stroke-width="1.5"/><rect x="99.35" y="299.35" width="501.3" height="681.3000000000001" fill="#e9e0cf" stroke="#253a3d" stroke-width="1.5"/><path d="M80,235 L620,235" fill="none" stroke="#667578" stroke-width="1"/><path d="M75,230 L85,240" fill="none" stroke="#667578" stroke-width="1"/><path d="M615,230 L625,240" fill="none" stroke="#667578" stroke-width="1"/><text x="350.0" y="227.0" font-size="17" fill="#607073" text-anchor="middle" font-weight="400">6.00 m source frontage</text><path d="M50,280 L50,1000" fill="none" stroke="#607073" stroke-width="1"/><text x="45" y="655" font-size="16" fill="#607073" text-anchor="end" font-weight="400">8 m</text><rect x="101.6" y="307.0" width="72.0" height="388.8" fill="#ada799" stroke="#253a3d" stroke-width="1.5"/><rect x="192.5" y="302.5" width="408.15000000000003" height="180" fill="#dfd4c0" stroke="none" stroke-width="1.5"/><rect x="422.0" y="496.0" width="54.0" height="378.0" fill="#744634" stroke="#253a3d" stroke-width="1.5"/><text x="448.99999999999994" y="685.0" font-size="18" fill="#253a3d" text-anchor="middle" font-weight="700">BAR</text><rect x="476.00000000000006" y="496.0" width="103.49999999999999" height="378.0" fill="#bfd0c5" stroke="none" stroke-width="1.5"/><rect x="579.5" y="496.0" width="21.15" height="378.0" fill="#886146" stroke="#253a3d" stroke-width="1.5"/><rect x="197.0" y="712.0" width="139.5" height="62.99999999999999" fill="#a57a75" stroke="#253a3d" stroke-width="1.5"/><text x="266.75" y="743.5" font-size="18" fill="#253a3d" text-anchor="middle" font-weight="700">Snug</text><rect x="99.35" y="793.0" width="174.15" height="187.65" fill="#c3b7a0" stroke="#253a3d" stroke-width="1.5"/><text x="186.425" y="886.8249999999999" font-size="18" fill="#253a3d" text-anchor="middle" font-weight="700">Beer store</text><rect x="287.0" y="887.5" width="313.65" height="93.14999999999999" fill="#e9e0d0" stroke="none" stroke-width="1.5"/><text x="443.82499999999993" y="934.075" font-size="18" fill="#253a3d" text-anchor="middle" font-weight="700">Rear passage</text><path d="M182.42,299.35 L182.42,784.0" fill="none" stroke="#253a3d" stroke-width="7"/><path d="M101.6,307.0 L173.60000000000002,307.0" fill="none" stroke="#607073" stroke-width="1"/><path d="M101.6,328.6 L173.60000000000002,328.6" fill="none" stroke="#607073" stroke-width="1"/><path d="M101.6,350.2 L173.60000000000002,350.2" fill="none" stroke="#607073" stroke-width="1"/><path d="M101.6,371.8 L173.60000000000002,371.8" fill="none" stroke="#607073" stroke-width="1"/><path d="M101.6,393.4 L173.60000000000002,393.4" fill="none" stroke="#607073" stroke-width="1"/><path d="M101.6,415.0 L173.60000000000002,415.0" fill="none" stroke="#607073" stroke-width="1"/><path d="M101.6,436.6 L173.60000000000002,436.6" fill="none" stroke="#607073" stroke-width="1"/><path d="M101.6,458.2 L173.60000000000002,458.2" fill="none" stroke="#607073" stroke-width="1"/><path d="M101.6,479.79999999999995 L173.60000000000002,479.79999999999995" fill="none" stroke="#607073" stroke-width="1"/><path d="M101.6,501.4 L173.60000000000002,501.4" fill="none" stroke="#607073" stroke-width="1"/><path d="M101.6,523.0 L173.60000000000002,523.0" fill="none" stroke="#607073" stroke-width="1"/><path d="M101.6,544.5999999999999 L173.60000000000002,544.5999999999999" fill="none" stroke="#607073" stroke-width="1"/><path d="M101.6,566.2 L173.60000000000002,566.2" fill="none" stroke="#607073" stroke-width="1"/><path d="M101.6,587.8 L173.60000000000002,587.8" fill="none" stroke="#607073" stroke-width="1"/><path d="M101.6,609.4 L173.60000000000002,609.4" fill="none" stroke="#607073" stroke-width="1"/><path d="M101.6,631.0 L173.60000000000002,631.0" fill="none" stroke="#607073" stroke-width="1"/><path d="M101.6,652.5999999999999 L173.60000000000002,652.5999999999999" fill="none" stroke="#607073" stroke-width="1"/><path d="M101.6,674.2 L173.60000000000002,674.2" fill="none" stroke="#607073" stroke-width="1"/><path d="M101.6,695.8 L173.60000000000002,695.8" fill="none" stroke="#607073" stroke-width="1"/><text x="137.6" y="496.0" font-size="17" fill="#253a3d" text-anchor="middle" font-weight="700">UP</text><path d="M273.5,793.0 L273.5,824.5" fill="none" stroke="#253a3d" stroke-width="7"/><path d="M273.5,905.5 L273.5,980.65" fill="none" stroke="#253a3d" stroke-width="7"/><rect x="287.0" y="311.5" width="274.5" height="43.199999999999996" fill="#927258" stroke="#253a3d" stroke-width="1.5"/><rect x="305.0" y="379.0" width="62.99999999999999" height="58.5" fill="#927258" stroke="#253a3d" stroke-width="1.5"/><rect x="228.5" y="640" width="62.99999999999999" height="58.5" fill="#927258" stroke="#253a3d" stroke-width="1.5"/><rect x="197.0" y="577.0" width="99.00000000000001" height="9.0" fill="#927258" stroke="#253a3d" stroke-width="1.5"/><rect x="426.5" y="514.0" width="40.5" height="40.5" fill="#927258" stroke="#253a3d" stroke-width="1.5"/><path d="M186.92000000000002,280 L267.92,280" fill="none" stroke="#f5f0e5" stroke-width="22"/><path d="M186.92000000000002,280 L186.92000000000002,361.0" fill="none" stroke="#42534a" stroke-width="2"/><path d="M111.5,280 L186.92000000000002,280" fill="none" stroke="#f5f0e5" stroke-width="22"/><path d="M111.5,280 L111.5,204.57999999999998" fill="none" stroke="#42534a" stroke-width="2"/><path d="M279.8,280 L579.5,280" fill="none" stroke="#83b4bb" stroke-width="22"/><path d="M323.0,1000 L404.0,1000" fill="none" stroke="#f5f0e5" stroke-width="22"/><path d="M323.0,1000 L323.0,1081.0" fill="none" stroke="#42534a" stroke-width="2"/><path d="M514.7,1000 L590.3,1000" fill="none" stroke="#f5f0e5" stroke-width="22"/><path d="M514.7,1000 L514.7,1075.6" fill="none" stroke="#42534a" stroke-width="2"/><circle cx="269.0" cy="712.0" r="15" fill="#d3a447" stroke="#253a3d" stroke-width="1"/><text x="269.0" y="718.0" font-size="17" fill="#253a3d" text-anchor="middle" font-weight="700">O</text><path d="M227.42,370 L227.42,473.5 L323.0,473.5 L377.0,550" fill="none" stroke="#c37c21" stroke-width="5" stroke-linejoin="round" stroke-linecap="round" stroke-dasharray="8 5"/><path d="M552.5,928.0 L525.5,856.0 L525.5,532.0" fill="none" stroke="#2a8179" stroke-width="5" stroke-linejoin="round" stroke-linecap="round" stroke-dasharray="8 5"/><text x="695" y="290" font-size="21" fill="#253a3d" text-anchor="start" font-weight="700">A SMALL WORKING PUB</text><text x="695" y="327" font-size="19" fill="#607073" text-anchor="start" font-weight="400">Public door: 0.90 m</text><text x="695" y="356" font-size="19" fill="#607073" text-anchor="start" font-weight="400">Private door: 0.838 m</text><text x="695" y="385" font-size="19" fill="#607073" text-anchor="start" font-weight="400"></text><text x="695" y="414" font-size="19" fill="#607073" text-anchor="start" font-weight="400">Counter: 0.60 × 4.20 m</text><text x="695" y="443" font-size="19" fill="#607073" text-anchor="start" font-weight="400">Staff aisle: 1.15 m</text><text x="695" y="472" font-size="19" fill="#607073" text-anchor="start" font-weight="400"></text><text x="695" y="501" font-size="19" fill="#607073" text-anchor="start" font-weight="400">O  Overhearing nook</text><text x="695" y="530" font-size="19" fill="#607073" text-anchor="start" font-weight="400">1.45 m screen breaks</text><text x="695" y="559" font-size="19" fill="#607073" text-anchor="start" font-weight="400">views of hands and lap.</text><text x="695" y="588" font-size="19" fill="#607073" text-anchor="start" font-weight="400">Voice carry is untested.</text><text x="695" y="617" font-size="19" fill="#607073" text-anchor="start" font-weight="400"></text><text x="695" y="646" font-size="19" fill="#607073" text-anchor="start" font-weight="400">Beer store at the back.</text><text x="695" y="675" font-size="19" fill="#607073" text-anchor="start" font-weight="400">Public rear door and</text><text x="695" y="704" font-size="19" fill="#607073" text-anchor="start" font-weight="400">staff door stay separate.</text><text x="695" y="733" font-size="19" fill="#607073" text-anchor="start" font-weight="400"></text><text x="695" y="762" font-size="19" fill="#607073" text-anchor="start" font-weight="400">19 risers to +3.40 m</text><text x="695" y="791" font-size="19" fill="#607073" text-anchor="start" font-weight="400">18 goings × 0.24 m</text><text x="695" y="820" font-size="19" fill="#607073" text-anchor="start" font-weight="400">Private stair: 0.80 m</text><text x="695" y="849" font-size="19" fill="#607073" text-anchor="start" font-weight="400"></text><text x="695" y="878" font-size="19" fill="#607073" text-anchor="start" font-weight="400">Yard WC and escape</text><text x="695" y="907" font-size="19" fill="#607073" text-anchor="start" font-weight="400">continue on site sheet.</text><text x="80" y="1050" font-size="20" fill="#253a3d" text-anchor="start" font-weight="700">EAST / REAR YARD</text><text x="80" y="1090" font-size="16" fill="#607073" text-anchor="start" font-weight="400">Doors, screen and furniture are proposed replacements within the source shell.</text><path d="M38,1138 L1022,1138" fill="none" stroke="#b9beb3" stroke-width="2"/><text x="38" y="1168" font-size="15" fill="#607073" text-anchor="start" font-weight="400">MERIDIAN  /  1988-1992</text><text x="1022" y="1168" font-size="15" fill="#607073" text-anchor="end" font-weight="400">AUTHORED DESIGN</text></svg>